<!-- Generated by IcoMoon.io -->
<svg version="1.1" xmlns="http://www.w3.org/2000/svg" width="32" height="32" viewBox="0 0 32 32">
<title>01</title>
<path fill="#fac663" d="M16 0c8.837 0 16 7.163 16 16s-7.163 16-16 16c-8.837 0-16-7.163-16-16s7.163-16 16-16z"></path>
<path fill="#fffdfb" d="M25.67 14.637c-0.007-0.143-0.091-0.408-0.58-0.577l-13.051-4.492c-0.669-0.23-1.411 0.097-1.655 0.73l-1.148 2.986c-0.244 0.633 0.103 1.336 0.772 1.567l3.804 1.309c-0.072 0.416 0.048 0.827 0.311 1.142l-0.81 2.107c-0.037 0.097-0.136 0.162-0.245 0.162h-2.374v-0.733c0-0.404-0.348-0.733-0.775-0.733h-0.516c-0.143 0-0.258 0.109-0.258 0.244v3.911c0 0.135 0.116 0.244 0.258 0.244h0.516c0.427 0 0.775-0.329 0.775-0.733v-0.733h2.374c0.758 0 1.442-0.453 1.701-1.127l0.793-2.063c0.454-0.060 0.867-0.311 1.111-0.703l4.445 1.53c0.145 0.050 0.294 0.074 0.44 0.074 0.444-0 0.866-0.218 1.102-0.583l0.51 0.176c0.058 0.020 0.117 0.030 0.177 0.030 0.074 0 0.148-0.015 0.218-0.046 0.125-0.055 0.22-0.153 0.267-0.276l0.707-1.838c0.086-0.224-0.012-0.469-0.22-0.586l0.828-0.365c0.472-0.208 0.532-0.479 0.525-0.622zM10.176 21.772c0 0.135-0.116 0.244-0.258 0.244h-0.258v-3.422h0.258c0.142 0 0.258 0.11 0.258 0.244v2.933zM14.282 19.744c-0.185 0.482-0.674 0.806-1.215 0.806h-2.374v-0.489h2.374c0.325 0 0.619-0.194 0.73-0.484l0.741-1.928c0.085 0.048 0.176 0.090 0.273 0.123 0.069 0.024 0.138 0.042 0.207 0.057l-0.736 1.915zM15.376 17.373c-0.006-0-0.012-0-0.018 0-0.123 0.002-0.248-0.018-0.371-0.060-0.144-0.049-0.269-0.126-0.371-0.22-0.009-0.011-0.020-0.021-0.031-0.030-0.192-0.194-0.295-0.457-0.276-0.73l1.864 0.642c-0.189 0.245-0.484 0.39-0.797 0.399zM24.052 16.044l-0.706 1.838-0.486-0.167 0.67-1.743 0.137-0.061 0.385 0.132zM24.927 14.816l-2.1 0.927c-0.455 0.201-1.238 0.233-1.709 0.071l-9.897-3.405c-0.134-0.046 0.203 0.186 0.154 0.313s-0.465 0.1-0.331 0.146l9.897 3.405c0.26 0.090 0.58 0.133 0.907 0.133 0.357 0 0.722-0.052 1.024-0.154l-0.586 1.525c-0.146 0.38-0.592 0.577-0.993 0.438l-11.11-3.823c-0.401-0.138-0.609-0.56-0.463-0.94l0.442-1.149c0.147 0.214 0.367 0.387 0.639 0.481l0.243 0.084c0.134 0.046 0.282-0.019 0.331-0.146s-0.020-0.267-0.154-0.313l-0.243-0.084c-0.401-0.138-0.609-0.56-0.463-0.94l0.353-0.919c0.146-0.38 0.592-0.577 0.993-0.438l13.051 4.492c0.166 0.057 0.227 0.117 0.24 0.139-0.010 0.023-0.066 0.087-0.226 0.158z"></path>
<path fill="#fffdfb" d="M23.546 15.426l1.381-0.609c0.16-0.071 0.216-0.135 0.226-0.158-0.012-0.022-0.074-0.081-0.24-0.139l-13.051-4.492c-0.402-0.138-0.847 0.058-0.993 0.438l-0.353 0.919c-0.146 0.38 0.062 0.802 0.463 0.94l10.139 3.489c0.472 0.163 1.255 0.13 1.709-0.071l0.719-0.317z"></path>
</svg>
