<!-- Generated by IcoMoon.io -->
<svg version="1.1" xmlns="http://www.w3.org/2000/svg" width="32" height="32" viewBox="0 0 32 32">
<title>02</title>
<path fill="#fac663" d="M16 0c8.837 0 16 7.163 16 16s-7.163 16-16 16c-8.837 0-16-7.163-16-16s7.163-16 16-16z"></path>
<path fill="#fffdfb" d="M24.908 16.722c-0.078-0.079-1.567-1.939-4.817-1.998-0.313-0.554-1.508-2.354-3.446-2.354h-0.059l-0.862-1.662c-0.059-0.099-0.157-0.158-0.255-0.158h-1.332c-0.117 0-0.215 0.059-0.255 0.158l-0.783 1.642h-0.255c-0.078 0-1.919-0.138-3.838 2.354h-1.488c-0.137 0-0.255 0.099-0.294 0.237-0.020 0.119-0.607 2.968 0.372 4.194 0.313 0.376 0.725 0.574 1.234 0.574h0.411c0.137 0.989 0.979 1.741 1.997 1.741s1.86-0.752 1.997-1.741h5.718c0.137 0.989 0.979 1.741 1.997 1.741s1.86-0.752 1.997-1.741h1.723c0.157 0 0.294-0.138 0.294-0.297v-2.513c0-0.059-0.020-0.138-0.059-0.178zM16.645 12.943c1.371 0 2.311 1.148 2.742 1.781h-4.249v-1.781h1.508zM14.334 11.143h0.96l0.627 1.227h-2.174l0.587-1.227zM12.826 12.943h1.743v1.781h-4.798c1.586-1.84 3.016-1.781 3.055-1.781zM11.24 20.877c-0.783 0-1.43-0.653-1.43-1.444s0.646-1.444 1.43-1.444 1.429 0.653 1.429 1.444c0.020 0.791-0.627 1.444-1.43 1.444zM20.953 20.877c-0.783 0-1.43-0.653-1.43-1.444s0.646-1.444 1.43-1.444c0.783 0 1.43 0.653 1.43 1.444s-0.627 1.444-1.43 1.444zM24.38 19.136h-1.43c-0.137-0.989-0.979-1.741-1.997-1.741s-1.86 0.752-1.997 1.741h-5.718c-0.137-0.989-0.979-1.741-1.997-1.741s-1.86 0.752-1.997 1.741h-0.411c-0.333 0-0.587-0.119-0.783-0.356-0.607-0.772-0.45-2.572-0.294-3.462h12.161c2.722 0 4.151 1.365 4.465 1.701v2.117z"></path>
<path fill="#fffdfb" d="M14.334 11.143h0.96l0.627 1.227h-2.174l0.587-1.227z"></path>
<path fill="#fffdfb" d="M11.24 20.877c-0.783 0-1.43-0.653-1.43-1.444s0.646-1.444 1.43-1.444 1.429 0.653 1.429 1.444c0.020 0.791-0.627 1.444-1.43 1.444z"></path>
<path fill="#fffdfb" d="M20.953 20.877c-0.783 0-1.43-0.653-1.43-1.444s0.646-1.444 1.43-1.444c0.783 0 1.43 0.653 1.43 1.444s-0.627 1.444-1.43 1.444z"></path>
</svg>
