<!-- Generated by IcoMoon.io -->
<svg version="1.1" xmlns="http://www.w3.org/2000/svg" width="32" height="32" viewBox="0 0 32 32">
<title>03</title>
<path fill="#fac663" d="M16 0c8.837 0 16 7.163 16 16s-7.163 16-16 16c-8.837 0-16-7.163-16-16s7.163-16 16-16z"></path>
<path fill="#fffdfb" d="M14.092 13.283c-0.088 0.209-0.133 0.429-0.131 0.655 0.002 0.454 0.192 0.886 0.534 1.214s0.798 0.517 1.284 0.531c0.379 0.011 0.753-0.087 1.070-0.277 0.301 0.181 0.654 0.278 1.014 0.278 0.019 0 0.038-0 0.057-0.001 0.481-0.014 0.934-0.199 1.275-0.522s0.534-0.748 0.543-1.198c0.006-0.281-0.058-0.551-0.189-0.802-0.12-0.23-1.090-1.225-1.433-1.589-0.086-0.091 0.145 0.228 0.047 0.308s-0.416-0.047-0.33 0.044c0.311 0.33 1.193 1.239 1.292 1.43 0.098 0.188 0.145 0.39 0.141 0.601-0.014 0.701-0.612 1.266-1.361 1.287-0.329 0.010-0.652-0.090-0.91-0.28-0.085-0.063-0.206-0.063-0.291 0-0.258 0.19-0.582 0.289-0.91 0.28-0.747-0.021-1.357-0.607-1.361-1.306-0.001-0.17 0.032-0.335 0.098-0.491 0.153-0.36 0.483-0.768 1.105-1.363 0.584-0.559 1.528-0.627 2.197-0.159 0.104 0.073 0.252 0.053 0.33-0.044s0.057-0.235-0.047-0.308c-0.857-0.6-2.067-0.513-2.816 0.203-0.677 0.648-1.027 1.085-1.206 1.508z"></path>
<path fill="#fffdfb" d="M15.605 11.068c0.606 0 1.098-0.59 1.098-1.314s-0.493-1.314-1.098-1.314c-0.606 0-1.098 0.59-1.098 1.314s0.493 1.314 1.098 1.314zM15.605 8.88c0.34 0 0.627 0.4 0.627 0.874s-0.287 0.874-0.627 0.874c-0.34 0-0.627-0.4-0.627-0.874s0.287-0.874 0.627-0.874z"></path>
<path fill="#fffdfb" d="M15.605 8.88c0.34 0 0.627 0.4 0.627 0.874s-0.287 0.874-0.627 0.874c-0.34 0-0.627-0.4-0.627-0.874s0.287-0.874 0.627-0.874z"></path>
<path fill="#fffdfb" d="M13.355 12.644c0.489 0 0.871-0.451 0.871-1.027s-0.383-1.027-0.871-1.027c-0.489 0-0.871 0.451-0.871 1.027s0.383 1.027 0.871 1.027zM13.355 11.031c0.217 0 0.4 0.268 0.4 0.586s-0.183 0.586-0.4 0.586c-0.217 0-0.4-0.268-0.4-0.586s0.183-0.586 0.4-0.586z"></path>
<path fill="#fffdfb" d="M13.355 11.031c0.217 0 0.4 0.268 0.4 0.586s-0.183 0.586-0.4 0.586c-0.217 0-0.4-0.268-0.4-0.586s0.183-0.586 0.4-0.586z"></path>
<path fill="#fffdfb" d="M20.253 12.644c0.489 0 0.872-0.451 0.872-1.027s-0.383-1.027-0.872-1.027c-0.489 0-0.871 0.451-0.871 1.027s0.383 1.027 0.871 1.027zM20.253 11.031c0.217 0 0.4 0.268 0.4 0.586s-0.183 0.586-0.4 0.586c-0.217 0-0.4-0.268-0.4-0.586s0.183-0.586 0.4-0.586z"></path>
<path fill="#fffdfb" d="M20.253 11.031c0.217 0 0.4 0.268 0.4 0.586s-0.183 0.586-0.4 0.586c-0.217 0-0.4-0.268-0.4-0.586s0.183-0.586 0.4-0.586z"></path>
<path fill="#fffdfb" d="M18.363 11.068c0.606 0 1.098-0.59 1.098-1.314s-0.493-1.314-1.098-1.314c-0.606 0-1.098 0.59-1.098 1.314s0.493 1.314 1.098 1.314zM18.363 8.88c0.34 0 0.627 0.4 0.627 0.874s-0.287 0.874-0.627 0.874c-0.34 0-0.627-0.4-0.627-0.874s0.287-0.874 0.627-0.874z"></path>
<path fill="#fffdfb" d="M18.363 8.88c0.34 0 0.627 0.4 0.627 0.874s-0.287 0.874-0.627 0.874c-0.34 0-0.627-0.4-0.627-0.874s0.287-0.874 0.627-0.874z"></path>
<path fill="#fffdfb" d="M22.839 15.451c-0.239-0.223-0.556-0.346-0.894-0.346s-0.655 0.123-0.894 0.346l-1.387 1.297c-0.232-0.238-0.566-0.388-0.936-0.388h-1.986c-0.13 0 0.249 0.099 0.249 0.22s-0.379 0.22-0.249 0.22h1.986c0.438 0 0.794 0.333 0.794 0.742s-0.356 0.742-0.794 0.742h-1.986c-0.13 0-0.236 0.099-0.236 0.22s0.105 0.22 0.236 0.22h1.986c0.697 0 1.265-0.53 1.265-1.183 0-0.143-0.027-0.28-0.077-0.407 0.003-0.002 0.006-0.004 0.008-0.007l1.46-1.366c0.309-0.289 0.813-0.289 1.122 0s0.309 0.76 0 1.049l-2.928 2.738h-2.7c-0.13 0 0.112 0.099 0.112 0.22s-0.13 0.22 0 0.22h2.686c0.062 0 0.122-0.023 0.167-0.065l2.997-2.802c0.493-0.461 0.493-1.211 0-1.672z"></path>
<path fill="#fffdfb" d="M17.050 19.549h-1.073c-0.062 0-0.121 0.023-0.166 0.064l-0.741 0.684-1.81-1.693c-0.035-0.121-0.052-0.245-0.052-0.372 0-0.788 0.686-1.43 1.529-1.43 0.014 0 0.028-0.001 0.041-0.004h2.071c0.13 0 0.236-0.099 0.236-0.22s-0.105-0.22-0.236-0.22h-2.298c-0.038 0-0.074 0.009-0.106 0.024-0.945 0.13-1.676 0.879-1.706 1.791l-0.19-0.178c-0.092-0.086-0.241-0.086-0.333 0l-1.248 1.167c-0.008 0.008-0.015 0.015-0.022 0.024l-2.090 2.186c-0.039 0.040-0.060 0.092-0.060 0.146l-0.004 1.81c-0 0.122 0.105 0.22 0.235 0.221l3.884 0.010c0.063 0 0.122-0.023 0.167-0.065l2.511-2.347c0.044-0.041 0.069-0.097 0.069-0.156s-0.025-0.114-0.069-0.156l-0.214-0.2 0.701-0.647h0.976c0.13 0 0.236-0.099 0.236-0.22s-0.106-0.22-0.236-0.22zM12.812 23.12l-3.55-0.009 0.003-1.506 1.878-1.964 2.695 2.52-1.026 0.959zM14.186 21.835l-2.706-2.53 0.901-0.842 2.706 2.53-0.901 0.842z"></path>
</svg>
