<!-- Generated by IcoMoon.io -->
<svg version="1.1" xmlns="http://www.w3.org/2000/svg" width="32" height="32" viewBox="0 0 32 32">
<title>04</title>
<path fill="#fac663" d="M16 0c8.837 0 16 7.163 16 16s-7.163 16-16 16c-8.837 0-16-7.163-16-16s7.163-16 16-16z"></path>
<path fill="#fffdfb" d="M16.583 16.393c1.152 0 2.094 1.211 2.094 1.513s-0.942 1.311-2.094 1.311-1.989-1.311-1.989-1.311c0 0 0.838-1.513 1.989-1.513z"></path>
<path fill="none" stroke="#fffdfb" stroke-linejoin="round" stroke-linecap="round" stroke-miterlimit="4" stroke-width="0.7033" d="M13.338 16.695l1.256 1.211M14.594 17.906l-1.256 1.211M14.594 17.906c0 0 0.838 1.311 1.989 1.311s2.094-1.009 2.094-1.311c0-0.303-0.942-1.513-2.094-1.513s-1.989 1.513-1.989 1.513z"></path>
<path fill="#fffdfb" stroke="#fffdfb" stroke-linejoin="miter" stroke-linecap="butt" stroke-miterlimit="4" stroke-width="0.3516" d="M23.969 13.7v0c-0.025-0.168-0.177-0.301-0.367-0.301h-1.573l-0.032-0.136c-0.229-0.988-1.132-1.285-1.236-1.318l-0.069-0.022-0.033-0.064c-0.489-0.943-1.498-0.99-1.611-0.994l-0.071-0.002-0.049-0.051c-0.597-0.62-1.406-0.627-1.839-0.519l-0.068 0.017-0.061-0.035c-0.384-0.22-1.163-0.433-1.919 0l-0.061 0.035-0.068-0.017c-0.434-0.107-1.242-0.101-1.839 0.519l-0.049 0.051-0.071 0.002c-0.112 0.004-1.123 0.051-1.611 0.994l-0.033 0.065-0.069 0.022c-0.106 0.034-1.008 0.332-1.236 1.318l-0.031 0.136h-1.573c-0.19 0-0.342 0.133-0.367 0.301v0l-1.17 7.88c-0.015 0.098 0.015 0.198 0.085 0.275M23.969 13.7l-17.024 8.155M23.969 13.7l1.17 7.879c0.015 0.098-0.016 0.198-0.085 0.275M23.969 13.7l1.085 8.154M6.945 21.855c0.069 0.077 0.172 0.123 0.282 0.123h17.545c0.11 0 0.212-0.046 0.282-0.123M6.945 21.855l18.109-0M12.075 12.005l-0 0c-0.076 0.274-0.313 0.472-0.595 0.511-0.002 0.001-0.005 0.003-0.009 0.005-0.018 0.011-0.044 0.029-0.077 0.053-0.065 0.049-0.148 0.12-0.234 0.203-0.089 0.085-0.178 0.178-0.255 0.27h10.217c-0.072-0.108-0.149-0.213-0.221-0.304-0.064-0.082-0.122-0.15-0.166-0.197-0.014-0.015-0.026-0.027-0.035-0.036-0.269-0.048-0.492-0.242-0.565-0.507h-8.060zM12.075 12.005c0.034-0.122 0.179-0.262 0.404-0.368 0.22-0.103 0.457-0.145 0.603-0.121 0.288 0.047 0.581-0.080 0.736-0.326 0.075-0.119 0.224-0.221 0.406-0.273s0.367-0.045 0.502 0.019c0.264 0.125 0.581 0.082 0.8-0.111 0.108-0.095 0.283-0.153 0.474-0.153s0.366 0.057 0.475 0.153c0.219 0.193 0.536 0.236 0.8 0.111h0M12.075 12.005l5.2-1.070M17.274 10.936c0.129-0.061 0.367-0.072 0.613-0.017 0.119 0.027 0.23 0.067 0.321 0.117 0.092 0.050 0.152 0.105 0.184 0.155M17.274 10.936l1.853 0.581M19.128 11.516l-0 0c-0.288 0.047-0.581-0.079-0.736-0.326M19.128 11.516c0.149-0.024 0.386 0.019 0.605 0.123M19.128 11.516l0.605 0.123M18.392 11.19h0c-0 0-0 0-0 0zM19.733 11.639c0.225 0.107 0.369 0.247 0.402 0.366l-0.402-0.366zM11.422 12.169h-0c-0.055 0.006-0.104 0.034-0.13 0.050-0.034 0.020-0.072 0.046-0.11 0.076-0.078 0.059-0.171 0.139-0.264 0.228-0.185 0.176-0.393 0.408-0.507 0.616l-0.142 0.26h11.462l-0.142-0.26c-0.116-0.212-0.276-0.439-0.412-0.613-0.068-0.087-0.133-0.163-0.185-0.219-0.026-0.028-0.051-0.053-0.074-0.073-0.011-0.010-0.025-0.021-0.040-0.031l-0.001-0c-0.009-0.006-0.043-0.029-0.090-0.034h-0c-0.154-0.017-0.276-0.123-0.314-0.258v-0c-0.075-0.27-0.338-0.47-0.59-0.589-0.258-0.122-0.569-0.192-0.813-0.152-0.154 0.025-0.305-0.044-0.382-0.166v-0c-0.074-0.118-0.189-0.209-0.312-0.276-0.125-0.068-0.268-0.119-0.413-0.152-0.282-0.063-0.609-0.067-0.84 0.042-0.139 0.066-0.305 0.042-0.418-0.057v-0c-0.19-0.167-0.457-0.241-0.707-0.241s-0.517 0.074-0.706 0.241v0c-0.112 0.099-0.279 0.123-0.418 0.057v0c-0.23-0.109-0.507-0.107-0.748-0.039s-0.474 0.212-0.608 0.424l-0 0c-0.077 0.123-0.227 0.191-0.381 0.166h-0c-0.24-0.039-0.55 0.029-0.809 0.15-0.253 0.119-0.518 0.318-0.594 0.592-0.038 0.136-0.16 0.241-0.314 0.258zM11.488 12.513c0 0-0 0-0.001 0l0.001-0zM7.055 21.682l-0.031 0.202h17.952l-0.031-0.202-1.246-8.188h-15.399l-0.023 0.149-1.223 8.039z"></path>
</svg>
