<!-- Generated by IcoMoon.io -->
<svg version="1.1" xmlns="http://www.w3.org/2000/svg" width="32" height="32" viewBox="0 0 32 32">
<title>05</title>
<path fill="#fac663" d="M16 0c8.837 0 16 7.163 16 16s-7.163 16-16 16c-8.837 0-16-7.163-16-16s7.163-16 16-16z"></path>
<path fill="#fffdfb" d="M24.115 10.828c-0.117-0.093-0.28-0.115-0.426-0.071-0.545 0.164-0.954 0.49-1.151 0.672-0.364-0.104-0.757-0.104-1.121 0-0.199-0.184-0.617-0.516-1.171-0.678-0.165-0.048-0.344-0-0.457 0.125-0.096 0.106-0.12 0.253-0.073 0.385 0.138 0.393 0.362 1.011 0.441 1.227-0.035 0.108-0.056 0.221-0.063 0.337-0.007 0.112-0.005 0.219 0.005 0.321l-0.155 0.304c-0.101 0.2-0.304 0.338-0.54 0.368-0.857 0.11-2.524 0.331-4.068 0.582-1.998 0.325-2.789 0.539-3.128 0.67-0.29-0.408-0.702-0.741-1.182-0.949-0.729-0.316-1.949-1.004-1.927-2.058 0.020-0.953 0.409-1.516 0.731-1.821 0.138-0.13 0.21-0.309 0.198-0.491s-0.107-0.352-0.261-0.467c-0.298-0.221-0.723-0.182-0.968 0.088-0.817 0.899-1.012 2.143-1.056 2.805-0.044 0.667 0.167 1.284 0.628 1.834 0.331 0.395 0.782 0.746 1.341 1.045 0.542 0.29 0.934 0.752 1.103 1.302 0.015 0.048 0.022 0.099 0.021 0.149l-0.005 0.254c-0.003 0.124-0.013 0.248-0.032 0.372l-0.186 1.23c-0.073 0.483-0.407 0.889-0.874 1.111-0.325 0.155-0.51 0.485-0.462 0.82l0.34 2.348c0.018 0.122 0.129 0.212 0.262 0.212h1.397c0.056 0 0.113-0.014 0.159-0.044 0.094-0.062 0.132-0.169 0.103-0.266l-0.015-0.050c-0.11-0.366-0.41-0.647-0.792-0.755l-0.066-0.502c-0.018-0.141 0.068-0.276 0.21-0.328l1.335-0.492c-0 0.013-0.001 0.026-0.002 0.039-0 0.002-0 0.003-0 0.005-0.013 0.232-0.023 0.441-0.029 0.622-0.009 0.248 0.093 0.487 0.282 0.662l1.12 1.039c0.050 0.046 0.117 0.072 0.187 0.072h1.619c0.139 0 0.257-0.106 0.264-0.235 0.026-0.449-0.315-0.838-0.794-0.905l-0.463-0.065-0.191-0.279c-0.094-0.137-0.091-0.312 0.008-0.446l1.263-1.716c0.384-0.11 2.003-0.544 2.952-0.338 0.012 0.116 0.047 0.229 0.103 0.335l1.842 3.511c0.044 0.084 0.136 0.138 0.237 0.138h1.253c0.056 0 0.111-0.013 0.157-0.043 0.093-0.060 0.133-0.165 0.107-0.262l-0.085-0.316c-0.082-0.305-0.327-0.538-0.636-0.629l0.307-2.475c0.013-0.103 0.046-0.203 0.098-0.296 0.191-0.338 0.565-0.988 0.929-1.537 0.286-0.431 0.47-0.927 0.532-1.434 0.094-0.771 0.279-1.756 0.325-1.995 0.203-0.27 0.297-0.627 0.271-1.046-0.007-0.116-0.028-0.23-0.063-0.337 0.079-0.218 0.306-0.845 0.444-1.237 0.053-0.152 0.005-0.317-0.127-0.423zM10.678 20.456c-0.365 0.134-0.586 0.481-0.539 0.842l0.088 0.676c0.015 0.112 0.11 0.201 0.231 0.214 0.153 0.017 0.291 0.082 0.393 0.18h-0.743l-0.309-2.136c-0.019-0.131 0.053-0.259 0.18-0.32 0.586-0.28 1.003-0.792 1.136-1.386 0.475 0.52 0.814 1.011 0.979 1.408l-1.416 0.523zM22.284 17.044c-0.372 0.561-0.753 1.221-0.947 1.565-0.083 0.146-0.135 0.304-0.155 0.467l-0.145 1.168-0.319-1.464c-0.030-0.139 0.004-0.284 0.095-0.398l0.727-0.918c0.402-0.507 0.585-1.131 0.515-1.758-0.015-0.135-0.145-0.232-0.29-0.218s-0.25 0.134-0.235 0.269c0.056 0.505-0.091 1.008-0.415 1.417l-0.727 0.918c-0.178 0.225-0.246 0.511-0.187 0.785l0.649 2.982c0.025 0.114 0.133 0.196 0.259 0.196 0.197 0 0.367 0.124 0.415 0.3l0.003 0.011h-0.757l-1.769-3.374c-0.045-0.086-0.063-0.181-0.051-0.276l0.262-2.155c0.016-0.134-0.088-0.256-0.233-0.271s-0.276 0.081-0.292 0.216l-0.228 1.873c-0.862-0.151-2.046 0.083-2.719 0.249 0.055-0.328-0.035-0.671-0.265-0.948l-0.386-0.462c-0.089-0.107-0.255-0.127-0.37-0.044s-0.136 0.237-0.047 0.344l0.386 0.462c0.216 0.258 0.227 0.613 0.028 0.883l-1.315 1.786c-0.218 0.296-0.225 0.683-0.017 0.986l0.256 0.373c0.041 0.060 0.108 0.1 0.183 0.111l0.582 0.082c0.119 0.017 0.219 0.079 0.28 0.166h-1.181l-1.043-0.967c-0.085-0.079-0.132-0.188-0.128-0.3 0.006-0.177 0.016-0.382 0.029-0.61 0.059-0.784-0.767-1.8-1.265-2.336-0.088-0.095-0.135-0.215-0.132-0.339l0.030-1.409c0.001-0.024-0.043-0.18-0.043-0.18-0.207-0.673-0.686-1.238-1.348-1.592-1.49-0.796-1.75-1.758-1.705-2.425 0.093-1.401 0.624-2.18 0.933-2.519 0.059-0.065 0.162-0.074 0.235-0.021 0.051 0.038 0.062 0.087 0.063 0.113s-0.002 0.076-0.048 0.118c-0.39 0.368-0.859 1.040-0.883 2.154-0.028 1.33 1.386 2.144 2.231 2.511 0.453 0.196 0.832 0.528 1.068 0.934 0 0 0.012 0.021 0.015 0.025 0.039 0.060 0.104 0.102 0.178 0.115 0.075 0.013 0.153-0.005 0.213-0.049 0.275-0.204 2.325-0.662 7.201-1.286 0.349-0.045 0.655-0.223 0.849-0.489 0.049 0.073 0.105 0.141 0.169 0.202 0.267 0.256 0.651 0.391 1.111 0.391 0.017 0 0.692-0.001 0.692-0.001 0.002 0 0.003 0 0.005-0 0.248 0.005 0.475-0.028 0.675-0.098-0.075 0.422-0.173 1.004-0.233 1.501-0.053 0.436-0.211 0.862-0.457 1.232zM23.272 12.403c-0.022 0.054-0.022 0.115 0 0.17 0.035 0.087 0.056 0.181 0.062 0.28 0.022 0.359-0.065 0.644-0.252 0.824-0.172 0.165-0.439 0.249-0.772 0.241-0.003-0-0.005-0-0.008-0s-0.654-0.001-0.666 0c-0.329 0.006-0.593-0.078-0.764-0.242-0.187-0.179-0.274-0.464-0.252-0.824 0.006-0.099 0.027-0.193 0.062-0.28 0.022-0.055 0.022-0.115 0.001-0.169-0-0.001-0-0.001-0.001-0.002-0.025-0.069-0.242-0.665-0.402-1.117 0.516 0.209 0.857 0.581 0.861 0.585 0.074 0.083 0.198 0.111 0.305 0.069 0.338-0.132 0.725-0.132 1.063 0 0.107 0.042 0.23 0.014 0.305-0.069 0.004-0.004 0.346-0.377 0.861-0.585-0.161 0.452-0.378 1.049-0.402 1.118z"></path>
<path fill="#fffdfb" d="M20.682 12.403l0.001 0.002c0.155-0.405 0.155-0.405 0.458-0.534-0.003-0.004-0.345-0.376-0.861-0.585 0.161 0.452 0.377 1.048 0.402 1.117z"></path>
<path fill="#fffdfb" d="M23.675 11.286c-0.516 0.209-0.857 0.581-0.861 0.585 0.438 0.128 0.442 0.222 0.458 0.522l0.001 0.010c0.025-0.068 0.241-0.665 0.402-1.118z"></path>
<path fill="#fffdfb" d="M9.202 9.689c-0.309 0.339-0.84 1.118-0.933 2.519l0.301-0.153c0.024-1.114 0.493-1.787 0.883-2.154 0.045-0.043 0.049-0.093 0.048-0.118s-0.012-0.075-0.063-0.113c-0.072-0.054-0.175-0.044-0.235 0.021z"></path>
</svg>
