<!-- Generated by IcoMoon.io -->
<svg version="1.1" xmlns="http://www.w3.org/2000/svg" width="32" height="32" viewBox="0 0 32 32">
<title>06</title>
<path fill="#fac663" d="M16 0c8.837 0 16 7.163 16 16s-7.163 16-16 16c-8.837 0-16-7.163-16-16s7.163-16 16-16z"></path>
<path fill="#fffdfb" d="M21.162 10.774c0.159 0 0.288 0.129 0.288 0.288s-0.129 0.288-0.288 0.288h-2.577c-0.159 0-0.288-0.129-0.288-0.288s0.129-0.288 0.288-0.288h2.577zM20.128 12.363c0-0.159-0.129-0.288-0.288-0.288h-1.255c-0.159 0-0.288 0.129-0.288 0.288s0.129 0.288 0.288 0.288h1.255c0.159 0 0.288-0.129 0.288-0.288zM18.297 13.663c0 0.159 0.129 0.288 0.288 0.288h2.577c0.159 0 0.288-0.129 0.288-0.288s-0.129-0.288-0.288-0.288h-2.577c-0.159 0-0.288 0.129-0.288 0.288zM20.128 14.964c0-0.159-0.129-0.288-0.288-0.288h-1.255c-0.159 0-0.288 0.129-0.288 0.288s0.129 0.288 0.288 0.288h1.255c0.159 0 0.288-0.129 0.288-0.288zM18.297 16.265c0 0.159 0.129 0.288 0.288 0.288h2.577c0.159 0 0.288-0.129 0.288-0.288s-0.129-0.288-0.288-0.288h-2.577c-0.159 0-0.288 0.129-0.288 0.288zM18.789 21.498c0 2.301-1.848 4.173-4.12 4.173s-4.12-1.872-4.12-4.173c0-1.491 0.773-2.846 2.034-3.596v-9.46c0-1.165 0.935-2.112 2.085-2.112s2.085 0.947 2.085 2.112v9.46c1.261 0.749 2.034 2.104 2.034 3.596zM18.217 21.498c0-1.265-0.694-2.657-1.812-3.232l-0.223-0.115v-9.709c0-0.71-0.813-1.536-1.514-1.536s-1.514 0.825-1.514 1.536v9.709l-0.223 0.115c-1.118 0.575-1.812 1.967-1.812 3.232 0 1.846 1.725 3.596 3.548 3.596s3.548-1.75 3.548-3.596zM17.297 21.498c0 1.468-1.179 2.662-2.628 2.662s-2.628-1.194-2.628-2.662c0-1.203 1.045-2.259 2.194-2.569l0.151-0.041v-4.8c0-0.156 0.127-0.283 0.283-0.283s0.283 0.127 0.283 0.283v4.8l0.151 0.041c1.149 0.31 2.194 1.366 2.194 2.569zM15.031 19.719c-0.063-0.282-0.332-0.215-0.617-0.149-0.996 0.228-1.692 1.111-1.692 2.146 0 0.293 0 0.607 0.371 0.607 0.197 0 0.242-0.327 0.242-0.62 0-0.526 0.322-1.312 1.078-1.488 0.282-0.066 0.681-0.211 0.617-0.496z"></path>
</svg>
