<!-- Generated by IcoMoon.io -->
<svg version="1.1" xmlns="http://www.w3.org/2000/svg" width="32" height="32" viewBox="0 0 32 32">
<title>logo</title>
<path fill="#1a212f" d="M4.012 27.42c-0.041-0.494-0.336-0.979-1.146-1.020 0.499-0.066 1.187-1.218 0.893-2.074-0.246-0.691-0.983-0.42-1.417-0.288-0.082 0.658 0.106 1.868-0.622 2.024-0.033-0.346 0.033-0.922-0.057-1.522-0.172-0.996-1.384-0.535-1.662-0.411 0.106 1.103 0.090 1.399 0.090 2.724 0.008 0.453-0.041 1.169 0 1.555 0.115 1.029 1.335 0.757 1.67 0.403 0-0.436-0.008-1.325-0.033-1.819 0.54-0.041 0.639 0.115 0.655 1.267 0.008 1.152 1.367 0.938 1.769 0.543-0.139-0.428-0.098-0.971-0.139-1.383z"></path>
<path fill="#1a212f" d="M4.723 26.572c0 2.387 1.228 2.584 2.088 2.559 0.794 0 2.096-0.222 2.104-2.559-0.008-2-0.893-2.707-2.080-2.707-1.253 0-2.113 0.774-2.113 2.707zM6.835 25.206c0.090 0 0.434-0.132 0.434 1.308 0 0.938-0.147 1.473-0.442 1.473-0.246 0-0.442-0.222-0.418-1.473 0-1.136 0.287-1.308 0.426-1.308z"></path>
<path fill="#1a212f" d="M10.6 25.379c0 0.469-0.008 0.988 0.016 2.584 0.008 0.642 0.033 1.169 0.77 1.152 0.655 0 0.819-0.263 0.893-0.346 0.025-0.716-0.025-2.28-0.041-3.366 0.18 0 0.352 0 0.508-0.008 0.524-0.016 0.704-0.329 0.696-0.765-0.008-0.494-0.409-0.757-0.966-0.757h-1.556c-1.236 0.008-1.318 0.008-1.417 0-0.229 0.971-0.090 1.49 0.852 1.506h0.246z"></path>
<path fill="#1a212f" d="M16.815 23.906c-0.573-0.058-1.957-0.033-2.915 0.008 0.106 1.095 0.115 2.502 0.098 3.497 0.016 0.955-0.066 1.621 0.934 1.687 0.655 0.049 1.024 0.049 1.613 0 0.802-0.066 1.13-0.502 0.745-1.457-0.663 0.099-1.277 0.123-1.662 0.049 0-0.115-0.016-0.477 0-0.568 0.368 0 0.77-0.016 1.122-0.016 0.729 0 0.655-1.177-0.008-1.177-0.475-0.025-0.688 0.025-1.13-0.016v-0.65c0.5-0.041 0.721-0.016 1.138 0 0.786 0.025 0.786-1.193 0.066-1.358z"></path>
<path fill="#1a212f" d="M19.372 22.112c-0.54 0.354-0.508 0.889-0.123 1.21 0.434 0.313 1.286 0.214 1.859-0.041 0.524-0.239 0.729-0.782 0.172-1.185-0.827 0.436-1.376 0.214-1.908 0.016zM22.288 24.605c0-0.494-0.311-0.732-0.802-0.732-0.573 0-0.868 0.148-1.040 0.675-0.205 0.642-0.508 1.629-0.68 2.312 0-0.296 0.049-2.041 0.049-2.255 0-0.543-0.287-0.732-0.77-0.732-0.336 0-0.933 0.214-0.933 0.214 0.049 0.37 0.090 0.584 0.098 1.070 0.016 0.51 0 1.325 0.049 2.938 0.025 0.79 0.278 1.053 0.917 1.029 1.146-0.041 1.22-2.164 1.531-2.938 0 0.354-0.016 1.58-0.016 1.992 0 0.56 0.049 0.946 0.696 0.946 0.557 0 0.876-0.189 0.974-0.362-0.066-0.247-0.090-1.745-0.090-2.921 0-0.518 0.008-0.971 0.016-1.234z"></path>
<path fill="#1a212f" d="M27.032 27.42c-0.041-0.494-0.336-0.979-1.146-1.020 0.5-0.066 1.187-1.218 0.893-2.074-0.246-0.691-0.983-0.42-1.417-0.288-0.082 0.658 0.106 1.868-0.622 2.024-0.033-0.346 0.033-0.922-0.057-1.522-0.172-0.996-1.384-0.535-1.662-0.411 0.106 1.103 0.090 1.399 0.090 2.724 0.008 0.453-0.041 1.169 0 1.555 0.115 1.029 1.335 0.757 1.67 0.403 0-0.436-0.008-1.325-0.033-1.819 0.54-0.041 0.639 0.115 0.655 1.267 0.008 1.152 1.367 0.938 1.769 0.543-0.139-0.428-0.098-0.971-0.139-1.383z"></path>
<path fill="#1a212f" d="M32 28.769c-0.115-0.321-0.106-0.477-0.131-0.938-0.066-1.201-0.082-2.362-0.475-3.16-0.663-1.177-2.375-0.856-3.202-0.263-0.074 1.424-0.319 2.008-0.475 3.596-0.115 1.16 0.852 1.481 1.752 0.913 0-0.14 0-0.625 0.041-0.741 0.106 0 0.508 0.008 0.663 0.008 0 0-0.041 0.477 0.188 0.732 0.409 0.469 1.351 0.329 1.638-0.148zM29.568 27.148c0.057-0.444 0.057-1.366 0.082-1.564 0.041-0.033 0.319-0.016 0.352 0.025 0.098 0.387 0.098 1.095 0.123 1.539h-0.557z"></path>
<path fill="#ff7236" d="M19.81 6.347l3.34-3.34c0.454-0.454 1.231-0.133 1.231 0.51v8.926c-0-2.895-2.292-4.656-4.571-6.096z"></path>
<path fill="#ffaa50" d="M24.381 12.443c0 4.489-3.639 8.128-8.127 8.128s-8.127-3.639-8.127-8.128 3.639-7.62 8.127-7.62c4.488 0 8.127 3.131 8.127 7.62z"></path>
<path fill="#ff7236" d="M12.698 12.443c0-3.912 2.246-6.791 5.237-7.467-0.543-0.1-1.105-0.153-1.681-0.153-1.496 0-2.892 0.354-4.096 0.984l-2.8-2.8c-0.454-0.454-1.231-0.133-1.231 0.51v8.926c0-0.183 0-0.182 0 0 0 4.489 3.639 8.128 8.127 8.128 0.577 0 1.139-0.062 1.681-0.176-2.991-0.775-5.237-4.039-5.237-7.951z"></path>
<path fill="#fffdfb" d="M14.476 17.522c0.982 0 1.778-0.682 1.778-1.524s-0.796-1.524-1.778-1.524c-0.982 0-1.778 0.682-1.778 1.524s0.796 1.524 1.778 1.524z"></path>
<path fill="#fffdfb" d="M18.032 17.522c0.982 0 1.778-0.682 1.778-1.524s-0.796-1.524-1.778-1.524c-0.982 0-1.778 0.682-1.778 1.524s0.796 1.524 1.778 1.524z"></path>
<path fill="#ff913c" d="M16.254 15.999c0.561 0 1.016-0.455 1.016-1.016s-0.455-1.016-1.016-1.016c-0.561 0-1.016 0.455-1.016 1.016s0.455 1.016 1.016 1.016z"></path>
<path fill="#1a212f" d="M13.206 12.951c-0.281 0-0.508-0.227-0.508-0.508v-0.508c0-0.281 0.227-0.508 0.508-0.508s0.508 0.227 0.508 0.508v0.508c0 0.281-0.227 0.508-0.508 0.508z"></path>
<path fill="#1a212f" d="M19.302 12.951c-0.281 0-0.508-0.227-0.508-0.508v-0.508c0-0.281 0.227-0.508 0.508-0.508s0.508 0.227 0.508 0.508v0.508c0 0.281-0.227 0.508-0.508 0.508z"></path>
</svg>
